<svg xmlns="http://www.w3.org/2000/svg" xmlns:xlink="http://www.w3.org/1999/xlink" width="69" height="69" viewBox="0 0 69 69">
  <defs>
    <filter id="Ellipse_384" x="0" y="0" width="69" height="69" filterUnits="userSpaceOnUse">
      <feOffset dy="3" input="SourceAlpha"/>
      <feGaussianBlur stdDeviation="3" result="blur"/>
      <feFlood flood-opacity="0.161"/>
      <feComposite operator="in" in2="blur"/>
      <feComposite in="SourceGraphic"/>
    </filter>
  </defs>
  <g id="Group_16346" data-name="Group 16346" transform="translate(-1 -587)">
    <g id="Group_6906" data-name="Group 6906" transform="translate(-54.521 48.478)">
      <g id="Ellipse_386" data-name="Ellipse 386" transform="translate(59.522 539.522)" fill="#fff" stroke="#3b9e49" stroke-width="1">
        <circle cx="30.5" cy="30.5" r="30.5" stroke="none"/>
        <circle cx="30.5" cy="30.5" r="30" fill="none"/>
      </g>
      <g transform="matrix(1, 0, 0, 1, 55.52, 538.52)" filter="url(#Ellipse_384)">
        <g id="Ellipse_384-2" data-name="Ellipse 384" transform="translate(9 6)" fill="#fff" stroke="#3b9e49" stroke-width="1">
          <circle cx="25.5" cy="25.5" r="25.5" stroke="none"/>
          <circle cx="25.5" cy="25.5" r="25" fill="none"/>
        </g>
      </g>
    </g>
    <g id="Group_6909" data-name="Group 6909" transform="translate(18.798 601.925)">
      <path id="Path_6979" data-name="Path 6979" d="M764.8,2838.98c-.557,1.631-1.088,3.271-1.676,4.892q-2.539,6.993-5.118,13.971a25.779,25.779,0,0,1-1.939,4.2,9.338,9.338,0,0,1-2.192,2.653,6.369,6.369,0,0,1-3.07,1.3,8.326,8.326,0,0,1-4.816-.7c-3.27-1.5-6.55-2.982-9.823-4.479-.547-.25-1.076-.538-1.615-.806a5.077,5.077,0,0,1-2.026-1.826,6.069,6.069,0,0,1-1.1-2.865c-.062-.876-.018-1.76-.018-2.641a.937.937,0,0,1,.037-.173,2.69,2.69,0,0,1,.26.071c1.356.521,2.717,1.029,4.066,1.568,3.336,1.333,6.664,2.684,10,4.017a.419.419,0,0,1,.3.432,8.134,8.134,0,0,0,.409,2.17,4.594,4.594,0,0,0,1.289,2.014,2.412,2.412,0,0,0,1.507.682,8.113,8.113,0,0,0,1.564-.043,3.5,3.5,0,0,0,2.013-1.2,9.244,9.244,0,0,0,1.377-2.1,50.909,50.909,0,0,0,2.152-5.114c1.746-4.606,3.444-9.23,5.047-13.889.124-.359.236-.723.351-1.085.024-.075.038-.152.062-.25-.383-.1-.752-.212-1.124-.308-2.65-.679-5.3-1.365-7.951-2.031-2.4-.6-4.806-1.181-7.207-1.778-.175-.044-.224.022-.279.161q-1.513,3.851-3.033,7.7-1.833,4.658-3.661,9.318c-.021.052-.045.1-.076.173a17.358,17.358,0,0,1-2.338-.931c.165-.43.319-.843.482-1.253q3.359-8.485,6.714-16.972a1.316,1.316,0,0,1,.986-.885.168.168,0,0,0,.043-.026h.171a.337.337,0,0,0,.061.028c1.117.258,2.236.506,3.351.774q6.78,1.625,13.558,3.263c.81.2,1.613.425,2.419.641a1.069,1.069,0,0,1,.669.519,3.56,3.56,0,0,1,.172.405Z" transform="translate(-731.397 -2832.942)" fill="#3b9e49"/>
      <path id="Path_6980" data-name="Path 6980" d="M1077.4,3178.533c.377.164.732.325,1.093.473q2.244.921,4.492,1.832c.178.072.223.165.166.332s-.125.353-.185.53c-.039.114-.107.142-.221.1-.637-.239-1.281-.461-1.914-.713-1.175-.469-2.344-.952-3.514-1.435a4.828,4.828,0,0,1-.547-.276.962.962,0,0,1-.34-1.448,3.32,3.32,0,0,1,.517-.537,4.879,4.879,0,0,1,.484-.377.677.677,0,0,0,.306-.642c-.055-.873-.1-1.747-.153-2.621-.029-.448-.084-.894-.114-1.342a.3.3,0,0,0-.209-.295c-.246-.1-.49-.2-.761-.317l.374-.972c.26.1.506.2.753.3s.508.2.765.288a.171.171,0,0,1,.13.187c.006.3.028.6.032.9a.206.206,0,0,0,.151.224q3.075,1.225,6.147,2.46c.421.169.841.342,1.264.507a.182.182,0,0,1,.129.185.762.762,0,0,1-.3.717q-1.5,1.21-2.992,2.425a.954.954,0,0,1-1.006.154q-1.351-.518-2.7-1.037-.445-.172-.884-.357a.193.193,0,0,0-.242.036c-.216.209-.44.41-.659.616A.524.524,0,0,0,1077.4,3178.533Z" transform="translate(-1064.462 -3159.287)" fill="#3b9e49"/>
      <path id="Path_6981" data-name="Path 6981" d="M1308.226,3007.943a1.259,1.259,0,0,1-1.12,1.257,1.055,1.055,0,0,1-.419-.048c-1.929-.6-3.859-1.2-5.784-1.808a1.191,1.191,0,0,1-.651-1.593,1.155,1.155,0,0,1,.862-.749,1.234,1.234,0,0,1,.5.02c1.92.57,3.84,1.142,5.753,1.733A1.132,1.132,0,0,1,1308.226,3007.943Z" transform="translate(-1280.724 -2999.111)" fill="#3b9e49"/>
      <path id="Path_6982" data-name="Path 6982" d="M1252.658,3125.07a1.139,1.139,0,0,1-1.435,1.182c-.754-.188-1.505-.391-2.246-.622-1.213-.378-2.421-.776-3.624-1.184a1.213,1.213,0,0,1-.717-1.365,1.226,1.226,0,0,1,1.121-.98,2.162,2.162,0,0,1,.6.122c1.82.549,3.64,1.1,5.455,1.659A1.111,1.111,0,0,1,1252.658,3125.07Z" transform="translate(-1227.09 -3112.226)" fill="#3b9e49"/>
      <path id="Path_6983" data-name="Path 6983" d="M1175.735,2961.69a1.371,1.371,0,0,1,1.324,1.37,1.39,1.39,0,0,1-2.777.006A1.4,1.4,0,0,1,1175.735,2961.69Z" transform="translate(-1159.158 -2957.293)" fill="#3b9e49"/>
      <path id="Path_6984" data-name="Path 6984" d="M1121.079,3080.122a1.277,1.277,0,0,1-1.373,1.338,1.335,1.335,0,0,1-1.392-1.361,1.415,1.415,0,0,1,1.415-1.332A1.345,1.345,0,0,1,1121.079,3080.122Z" transform="translate(-1105.102 -3070.373)" fill="#3b9e49"/>
      <path id="Path_6985" data-name="Path 6985" d="M1196.2,3498.517a1.039,1.039,0,0,1-.884,1.026c-.747-.005-1.171-.384-1.168-1.043a.987.987,0,0,1,.995-1.047A1.066,1.066,0,0,1,1196.2,3498.517Z" transform="translate(-1178.344 -3474.76)" fill="#3b9e49"/>
      <path id="Path_6986" data-name="Path 6986" d="M1048.643,3439.85a.944.944,0,0,1-1.029,1.014,1.012,1.012,0,0,1-1.045-.991,1.122,1.122,0,0,1,1.039-1.088A1,1,0,0,1,1048.643,3439.85Z" transform="translate(-1035.806 -3418.097)" fill="#3b9e49"/>
    </g>
    <g id="Ellipse_390" data-name="Ellipse 390" transform="translate(52.203 594.5)" fill="#3b9e49" stroke="#fff" stroke-width="1">
      <circle cx="6.5" cy="6.5" r="6.5" stroke="none"/>
      <circle cx="6.5" cy="6.5" r="6" fill="none"/>
    </g>
  </g>
</svg>
