<svg xmlns="http://www.w3.org/2000/svg" width="44" height="50.359" viewBox="0 0 44 50.359">
  <g id="Group_8040" data-name="Group 8040" transform="translate(0 0)">
    <path id="Path_8266" data-name="Path 8266" d="M1045.123,1051.927c-1.665,0-3.329,0-4.994,0-.6,0-.664-.067-.485-.621.455-1.41.916-2.819,1.4-4.219a2.338,2.338,0,0,0-.132-1.946c-.758-1.48-1.469-2.984-2.193-4.481-.394-.815-.759-1.645-1.167-2.453a6.011,6.011,0,0,1-.172-4.93c.579-1.646,1.06-3.326,1.593-4.988q1.48-4.61,2.971-9.215c.091-.282.174-.567.261-.85a2.23,2.23,0,0,1,2.231-1.6,2.134,2.134,0,0,1,2,1.983c.153,2.117.26,4.238.4,6.356a.672.672,0,0,1-.494.771,4.074,4.074,0,0,0-2.364,4.411,45.788,45.788,0,0,0,1.463,6.7c.264.866.548,1.727.848,2.582a1.154,1.154,0,0,0,1.454.769,1.061,1.061,0,0,0,.591-1.4c-.345-1.047-.691-2.094-1.018-3.148a37.814,37.814,0,0,1-.914-3.892c-.128-.646-.251-1.291-.338-1.944a1.92,1.92,0,0,1,1.3-2.07,1.82,1.82,0,0,1,2.281,1.059c1.374,3.334,2.757,6.666,4.107,10.01a4.836,4.836,0,0,1,.04,3.344q-1.278,4.052-2.549,8.107a9.028,9.028,0,0,0-.332.982c-.111.581-.451.7-.991.689-1.6-.03-3.2-.011-4.8-.011" transform="translate(-1036.937 -1001.58)" fill="#6d6d6d"/>
    <path id="Path_8267" data-name="Path 8267" d="M1370.6,1052.221c-1.649,0-3.3-.014-4.946.009a.714.714,0,0,1-.811-.59c-.855-2.77-1.737-5.533-2.6-8.3a11.006,11.006,0,0,1-.514-1.751,4.572,4.572,0,0,1,.213-2.338c.905-2.3,1.851-4.583,2.781-6.872q.633-1.557,1.266-3.113a1.849,1.849,0,0,1,3.613.568,19.268,19.268,0,0,1-.521,3.312,34.169,34.169,0,0,1-1.49,5.324,6.435,6.435,0,0,0-.22.759,1.018,1.018,0,0,0,.719,1.318,1.089,1.089,0,0,0,1.329-.746c.405-1.288.877-2.553,1.239-3.857a51.285,51.285,0,0,0,1.161-5.559,4.131,4.131,0,0,0-2.425-4.334.6.6,0,0,1-.46-.775,22.7,22.7,0,0,0,.129-2.613c.063-1.134.168-2.267.206-3.4a2.217,2.217,0,0,1,1.676-2.24,2.156,2.156,0,0,1,2.517,1.4c.247.7.473,1.4.7,2.111q2.02,6.333,4.039,12.667a10.888,10.888,0,0,1,.548,2,5.584,5.584,0,0,1-.512,3.17q-1.766,3.674-3.518,7.355a1.889,1.889,0,0,0-.023,1.444q.713,2.21,1.4,4.428c.169.545.1.628-.494.629-1.665,0-3.33,0-5,0" transform="translate(-1334.791 -1001.874)" fill="#6d6d6d"/>
    <path id="Path_8268" data-name="Path 8268" d="M1172.488,931.636c0,1.187,0,2.374,0,3.561a2.417,2.417,0,0,1-.355,1.415,2.118,2.118,0,0,1-2.317.924,2.084,2.084,0,0,1-1.487-1.9c-.017-.2-.01-.4-.01-.593q0-7.567.006-15.134a1.522,1.522,0,0,0-.372-1.082c-1.367-1.562-2.721-3.135-4.079-4.7-.658-.76-1.332-1.506-1.968-2.283a2.172,2.172,0,0,1,.112-2.733,1.977,1.977,0,0,1,2.924-.041c.824.85,1.565,1.781,2.339,2.679.871,1.01,1.73,2.031,2.614,3.03a2.026,2.026,0,0,0,1.535.693c1.566.015,3.132.02,4.7,0a2.147,2.147,0,0,0,1.668-.83q2.244-2.664,4.532-5.291a2.03,2.03,0,0,1,2.8-.55,2.192,2.192,0,0,1,.387,3.227c-2.03,2.271-3.984,4.611-5.982,6.911a1.32,1.32,0,0,0-.3.952q.007,7.69,0,15.381a2.188,2.188,0,0,1-.987,2.031,2.088,2.088,0,0,1-3.1-1.287,4.565,4.565,0,0,1-.092-.982q.005-3.512,0-7.023c0-.743-.079-.818-.826-.823q-.47,0-.939,0c-.718.005-.807.089-.809.79,0,1.22,0,2.44,0,3.66" transform="translate(-1151.768 -904.109)" fill="#3b9e49"/>
    <path id="Path_8269" data-name="Path 8269" d="M1246.276,869.463a4.871,4.871,0,1,1-4.874-4.851,4.828,4.828,0,0,1,4.874,4.851" transform="translate(-1219.401 -864.611)" fill="#6d6d6d"/>
  </g>
</svg>
