<svg id="Group_16415" data-name="Group 16415" xmlns="http://www.w3.org/2000/svg" xmlns:xlink="http://www.w3.org/1999/xlink" width="49.206" height="49.194" viewBox="0 0 49.206 49.194">
  <defs>
    <clipPath id="clip-path">
      <rect id="Rectangle_19516" data-name="Rectangle 19516" width="49.206" height="49.194" fill="#3b9e49"/>
    </clipPath>
  </defs>
  <g id="Group_16414" data-name="Group 16414" clip-path="url(#clip-path)">
    <path id="Path_16563" data-name="Path 16563" d="M.056,64.411c.216.132.188.324.211.491A6.925,6.925,0,0,0,6.192,70.73a15.863,15.863,0,0,0,1.942.1q15.988,0,31.975,0a8.66,8.66,0,0,1,8.031,4.7A9.014,9.014,0,0,1,49.2,79.963c.013,1.468.006,1.468-1.47,1.468-2.345,0-4.689-.008-7.033,0A5.723,5.723,0,0,0,38.063,82a5.074,5.074,0,0,0-2.89,4.548c-.062,1.238-.032,2.482-.007,3.723a5.178,5.178,0,0,0,5.1,5.036c2.719.018,5.437,0,8.156.005.756,0,.763.016.777.749a9.956,9.956,0,0,1-1.039,5.15,8.677,8.677,0,0,1-7.067,4.7,21.333,21.333,0,0,1-2.182.074q-14.835,0-29.67,0a8.932,8.932,0,0,1-6.83-2.84A8.649,8.649,0,0,1,.08,97.964c-.065-.65-.074-1.3-.074-1.946q0-15.456,0-30.911a1.976,1.976,0,0,1,.049-.7" transform="translate(0 -56.796)" fill="#3b9e49"/>
    <path id="Path_16564" data-name="Path 16564" d="M92.109,12.435c-.572,0-1.144-.024-1.714.008a1.33,1.33,0,0,1-1.089-.463q-3.538-3.568-7.1-7.111c-.487-.486-.4-.539-.946.007q-3.554,3.552-7.1,7.111a1.382,1.382,0,0,1-1.092.455c-1.221-.024-2.443-.008-3.665-.009a3.412,3.412,0,0,1-.413-.012c-.217-.027-.276-.142-.135-.319a3.581,3.581,0,0,1,.284-.3Q74.613,6.326,80.09.852a4.7,4.7,0,0,1,.483-.433,1.8,1.8,0,0,1,2.383.067c.135.114.257.245.382.37Q88.771,6.29,94.2,11.729c.169.169.518.321.392.585-.114.24-.465.11-.71.115-.591.014-1.182,0-1.773,0" transform="translate(-60.645 0.001)" fill="#3b9e49"/>
    <path id="Path_16565" data-name="Path 16565" d="M247.136,38.576c-.729,0-1.458-.011-2.187,0a1.135,1.135,0,0,1-.895-.354q-4-4.022-8.019-8.032c-.117-.117-.332-.224-.233-.429.078-.162.282-.1.432-.1,2.384,0,4.77-.048,7.152.014a7.006,7.006,0,0,1,6.655,6.857c0,.473.006.946,0,1.419-.007.57-.043.612-.6.619-.768.009-1.537,0-2.305,0" transform="translate(-207.9 -26.14)" fill="#3b9e49"/>
    <path id="Path_16566" data-name="Path 16566" d="M331.694,243.976c-1.3,0-2.6.006-3.9,0a1.814,1.814,0,0,1-1.98-1.988q-.012-1.594,0-3.189a1.85,1.85,0,0,1,1.913-1.961c2.736-.021,5.472,0,8.208-.012.411,0,.556.169.554.565-.009,2.008,0,4.015-.008,6.023,0,.512-.062.56-.6.562-1.4.006-2.795,0-4.192,0" transform="translate(-287.289 -208.824)" fill="#3b9e49"/>
    <path id="Path_16567" data-name="Path 16567" d="M22.763,29.735h4.017c.157,0,.315,0,.472.009.259.02.309.146.148.344a4.673,4.673,0,0,1-.326.341l-7.518,7.518c-.553.553-.571.568-1.278.248a5.246,5.246,0,0,1-3.263-4.746,3.563,3.563,0,0,1,3.554-3.709c1.4-.021,2.8,0,4.194-.005" transform="translate(-13.234 -26.215)" fill="#3b9e49"/>
  </g>
</svg>
