<svg xmlns="http://www.w3.org/2000/svg" xmlns:xlink="http://www.w3.org/1999/xlink" width="48.854" height="43.464" viewBox="0 0 48.854 43.464"><defs><clipPath id="a"><rect width="48.854" height="43.464" fill="#6d6d6d"/></clipPath></defs><g transform="translate(-63.573 -617.394)"><g transform="translate(63.573 617.394)"><g transform="translate(0 0)" clip-path="url(#a)"><path d="M22.783,29.792a.8.8,0,0,1,.563-.822c.267-.08.332-.283.386-.5.058-.237.089-.48.154-.715a6.66,6.66,0,0,1,6.593-4.888c.515.008.714-.134.782-.675a9.582,9.582,0,0,0-.94-5.47,1.682,1.682,0,0,0-.192-.315h0a11.758,11.758,0,0,0-1.544-2.087c-.1-.089-.219-.169-.3-.251a8.561,8.561,0,0,0-5.522-2.4c.333-.891.176-2.539-.394-2.992A2,2,0,0,0,21.041,8.3q-1.884,0-3.768,0c0-.029,0-.059,0-.091-.021-.862-.006-1.725-.006-2.588,0-.477,0-.953,0-1.43h9.074q0,.958,0,1.917c0,.252.174.368.578.365.713-.006,1.426-.011,2.138,0,.476.009.618-.128.606-.409-.021-.545-.006-1.09-.006-1.636q0-.148,0-.3a2.784,2.784,0,0,0,.986-.322c1.029-.594.893-2.885-.194-3.433A4.574,4.574,0,0,0,28.35,0q-6.981.008-13.962,0c-1.186,0-2.373-.018-3.557.009C9.267.052,8.448.6,8.417,1.584c-.01.3-.005.6,0,.9.015,1.225.765,1.7,2.713,1.7h2.825q0,2.042,0,4.085c0,.009,0,.016,0,.024H12.2c-.751,0-1.5-.018-2.253.009A1.434,1.434,0,0,0,8.414,9.878c-.006.3,0,.6,0,.9a2.56,2.56,0,0,0,.139.9c-.24.016-.479.037-.718.067a9.179,9.179,0,0,0-5.108,2.546.806.806,0,0,0-.149.165,12.8,12.8,0,0,0-1.4,1.969,1.711,1.711,0,0,0-.094.149c-.135.24-.256.483-.365.728l-.006.012h0a8.853,8.853,0,0,0-.577,5.1c.507,3.074,1.262,6.1,1.943,9.144Q3.234,36.7,4.314,41.852a1.869,1.869,0,0,0,1.2,1.443,3.172,3.172,0,0,0,1.22.17q8.908,0,17.816,0a4.792,4.792,0,0,0,.785-.052,1.854,1.854,0,0,0,1.57-1.209,1.678,1.678,0,0,0-.446-1.977,13.67,13.67,0,0,1-3.677-10.431m-1.6,1.775a5.558,5.558,0,1,1-10.639-2.013q2.193-4.692,4.409-9.373c.281-.6.761-.663,1.1-.1.478.806.889,1.651,1.321,2.484,1.047,2.015,2.1,4.027,3.13,6.053a5.714,5.714,0,0,1,.683,2.946" transform="translate(0 0)" fill="#6d6d6d"/><path d="M236.566,267.377q-5.808,0-11.617,0-5.837,0-11.673,0c-.712,0-.75.063-.775.774a10.776,10.776,0,0,0,.559,3.544,12.436,12.436,0,0,0,24.318-3.5c.022-.8-.011-.823-.813-.824" transform="translate(-188.529 -237.219)" fill="#6d6d6d"/><path d="M220.8,206.924c-.224.812-.144.923.686.923h9.357c3.138,0,6.276.011,9.413-.005a3.678,3.678,0,0,0,3.674-3.656c.011-.62.005-1.24,0-1.86,0-.76-.05-.81-.767-.542a23.9,23.9,0,0,1-9.315,1.617c-.675-.025-1.349-.075-2.023-.116-1.685-.1-3.375-.161-5.055-.322a5.627,5.627,0,0,0-5.973,3.961" transform="translate(-195.797 -178.894)" fill="#3b9e49"/><path d="M107.243,200.727c-.8-1.575-1.628-3.132-2.45-4.695-.152-.289-.178-.789-.532-.787-.335,0-.407.49-.547.782-1.1,2.284-2.181,4.577-3.271,6.866a5.053,5.053,0,0,0-.5,2.126,9.624,9.624,0,0,0,.144,1.058,4.338,4.338,0,0,0,5.152,3.185A4.514,4.514,0,0,0,108.7,204.3a11.257,11.257,0,0,0-1.46-3.574" transform="translate(-88.668 -173.224)" fill="#3b9e49"/></g></g></g></svg>