<svg id="Group_8035" data-name="Group 8035" xmlns="http://www.w3.org/2000/svg" xmlns:xlink="http://www.w3.org/1999/xlink" width="47.424" height="44.073" viewBox="0 0 47.424 44.073">
  <defs>
    <clipPath id="clip-path">
      <rect id="Rectangle_18179" data-name="Rectangle 18179" width="47.424" height="44.073" fill="#3b9e49"/>
    </clipPath>
  </defs>
  <g id="Group_8034" data-name="Group 8034" clip-path="url(#clip-path)">
    <path id="Path_8223" data-name="Path 8223" d="M23.717,0Q32.164,0,40.61,0a6.829,6.829,0,0,1,6.645,5.431,8.251,8.251,0,0,1,.169,1.71q-.007,11.666,0,23.332a6.769,6.769,0,0,1-5.826,6.715c-.077.011-.153.027-.229.042-.665.137-.666.137-.667.812,0,.762,0,1.524,0,2.287a3.551,3.551,0,0,1-2.976,3.687,3.818,3.818,0,0,1-2.77-.744q-3.318-1.99-6.626-4c-.918-.554-1.843-1.1-2.75-1.669a1.881,1.881,0,0,0-1.059-.276c-5.771.006-11.542.022-17.313,0A6.9,6.9,0,0,1,.788,33.643,6.232,6.232,0,0,1,.005,30.6Q-.007,18.726,0,6.849A6.824,6.824,0,0,1,5.487.157,8.243,8.243,0,0,1,7.151,0Q15.434,0,23.717,0m.03,13.659a4.9,4.9,0,0,0-5,4.966,4.758,4.758,0,0,0,4.949,4.984A4.75,4.75,0,0,0,28.673,18.7a4.9,4.9,0,0,0-4.925-5.042M40.5,18.685a4.9,4.9,0,0,0-4.962-5,4.828,4.828,0,0,0-4.965,5.025,4.806,4.806,0,0,0,4.9,4.913,4.9,4.9,0,0,0,5.03-4.94m-33.57-.019a4.9,4.9,0,0,0,4.965,4.956,4.806,4.806,0,0,0,4.956-4.991A4.808,4.808,0,0,0,11.9,13.687a4.906,4.906,0,0,0-4.979,4.98" transform="translate(0.001 0.001)" fill="#3b9e49"/>
  </g>
</svg>
