<svg xmlns="http://www.w3.org/2000/svg" xmlns:xlink="http://www.w3.org/1999/xlink" width="49.414" height="49.427" viewBox="0 0 49.414 49.427">
  <defs>
    <clipPath id="clip-path">
      <rect id="Rectangle_18206" data-name="Rectangle 18206" width="49.414" height="49.427" fill="#6d6d6d"/>
    </clipPath>
  </defs>
  <g id="Group_16345" data-name="Group 16345" transform="translate(-66.026 -356.394)">
    <g id="Rectangle_18207" data-name="Rectangle 18207" transform="translate(97 360)" fill="#3b9e49" stroke="#707070" stroke-width="1">
      <rect width="15" height="13" stroke="none"/>
      <rect x="0.5" y="0.5" width="14" height="12" fill="none"/>
    </g>
    <g id="Rectangle_18208" data-name="Rectangle 18208" transform="translate(68 367)" fill="#3b9e49" stroke="#707070" stroke-width="1">
      <rect width="6" height="20" stroke="none"/>
      <rect x="0.5" y="0.5" width="5" height="19" fill="none"/>
    </g>
    <g id="Group_16344" data-name="Group 16344">
      <g id="Group_16343" data-name="Group 16343">
        <g id="Group_8101" data-name="Group 8101" transform="translate(66.026 356.394)">
          <g id="Group_8100" data-name="Group 8100" transform="translate(0)" clip-path="url(#clip-path)">
            <path id="Path_8460" data-name="Path 8460" d="M49.414,16.464q0,7.279,0,14.557c0,1.38-.608,1.987-1.988,1.987H27.143c-.728,0-.729,0-.729.734,0,1.365-.01,2.731,0,4.1a11.129,11.129,0,0,1-3.772,8.583,11.084,11.084,0,0,1-7.475,3,11.345,11.345,0,0,1-5.616-1.257,11.683,11.683,0,0,1-5.246-5.5,13.816,13.816,0,0,1-1.1-5.517c-.052-1.314-.021-2.632,0-3.947a.749.749,0,0,0-.461-.769A4.756,4.756,0,0,1,0,27.992q0-8.117,0-16.235A1.675,1.675,0,0,1,1.28,9.9c.287-.1.319-.285.326-.528a7.7,7.7,0,0,1,.064-1.426A1.693,1.693,0,0,1,3.338,6.538q1.628-.024,3.257,0A1.716,1.716,0,0,1,8.343,8.291c.007.395.006.79,0,1.184a.385.385,0,0,0,.325.416,1.716,1.716,0,0,1,1.34,1.824c0,5.461.031,10.922-.016,16.383a4.76,4.76,0,0,1-2.809,4.367.692.692,0,0,0-.448.716c.014,1.579-.013,3.158.011,4.737a7.85,7.85,0,0,0,3.822,6.829,7.532,7.532,0,0,0,4.89,1.224A8.084,8.084,0,0,0,22.611,40.2a9.315,9.315,0,0,0,.394-2.867c-.023-1.217,0-2.434-.006-3.652,0-.664,0-.666-.648-.667-1.382,0-2.763,0-4.145,0a1.758,1.758,0,0,1-1.8-1.8q0-14.706,0-29.411A1.648,1.648,0,0,1,18.194,0Q32.924,0,47.654,0a1.629,1.629,0,0,1,1.757,1.756q.006,7.353,0,14.705M38.693,5.08c-1.315,0-2.63,0-3.945,0A1.542,1.542,0,0,0,33.028,6.7q-.056,3.254,0,6.509a1.48,1.48,0,0,0,1.548,1.524q4.093.024,8.187,0a1.514,1.514,0,0,0,1.568-1.6q.012-3.206,0-6.411a1.562,1.562,0,0,0-1.643-1.632c-1.331-.008-2.663,0-3.995,0M3.417,20.908c0,2.333-.006,4.666,0,7a1.555,1.555,0,0,0,1.566,1.619,1.5,1.5,0,0,0,1.54-1.576c.01-4.7,0-9.4.011-14.1,0-.4-.165-.517-.534-.508-.657.015-1.315.027-1.971,0-.468-.022-.63.137-.626.616.02,2.316.009,4.633.01,6.949M38.67,19.885c-1.363,0-2.727-.012-4.09,0a1.523,1.523,0,0,0-1.556,1.471A1.6,1.6,0,0,0,34.5,22.984q4.164.038,8.329,0a1.634,1.634,0,0,0,1.5-1.45,1.52,1.52,0,0,0-1.566-1.647c-1.363-.017-2.727,0-4.09,0m-.012,7.978v0c1.4,0,2.8.009,4.193,0a1.567,1.567,0,0,0,1.433-1.095,1.506,1.506,0,0,0-.653-1.673,2.2,2.2,0,0,0-1.266-.341H37.581c-.954,0-1.908-.021-2.861.009a1.639,1.639,0,0,0-1.7,1.631c.041.938.665,1.473,1.736,1.475,1.3,0,2.6,0,3.9,0M24.707,8.2V8.191c.559,0,1.121.033,1.677-.007a1.487,1.487,0,0,0,1.475-1.636,1.511,1.511,0,0,0-1.6-1.466c-1.02-.009-2.04-.008-3.06,0A1.516,1.516,0,0,0,21.554,6.6a1.5,1.5,0,0,0,1.574,1.595c.525.023,1.053,0,1.579,0m-.046,4.932c.542,0,1.085.01,1.628,0a1.542,1.542,0,0,0,1.571-1.556,1.473,1.473,0,0,0-1.553-1.551q-1.6-.03-3.206,0a1.474,1.474,0,0,0-1.547,1.557,1.544,1.544,0,0,0,1.578,1.549c.509.011,1.019,0,1.529,0" transform="translate(0 0)" fill="#6d6d6d"/>
          </g>
        </g>
      </g>
    </g>
  </g>
</svg>
