<svg xmlns="http://www.w3.org/2000/svg" xmlns:xlink="http://www.w3.org/1999/xlink" width="48.773" height="48.759" viewBox="0 0 48.773 48.759">
  <defs>
    <clipPath id="clip-path">
      <rect id="Rectangle_18181" data-name="Rectangle 18181" width="48.773" height="48.759" fill="#6d6d6d"/>
    </clipPath>
  </defs>
  <g id="Group_8097" data-name="Group 8097" transform="translate(0 0)">
    <g id="Group_8042" data-name="Group 8042" transform="translate(0 0)" clip-path="url(#clip-path)">
      <path id="Path_8272" data-name="Path 8272" d="M422.769,268.99q3.714-.02,7.427,0c.434,0,.586-.145.581-.581-.017-1.792-.007-3.585-.007-5.377s-.008-3.585.006-5.377c0-.412-.149-.566-.56-.565q-3.736.015-7.473,0c-.411,0-.564.149-.563.561q.014,5.377,0,10.754c0,.432.156.586.59.584" transform="translate(-383.665 -233.637)" fill="#3b9e49"/>
      <path id="Path_8273" data-name="Path 8273" d="M128.368,115.288l.456.005c1.189.008.98.008,1.008-.963a2.461,2.461,0,0,1,2.347-2.393q8.481-.014,16.962-.005a2.009,2.009,0,0,1,1.118.337,2.556,2.556,0,0,1,1.233,2.293q-.011,9.826,0,19.652c0,1.306-.189,1.156,1.161,1.164.681,0,.69-.008.69-.687q0-5.061,0-10.123c0-3.389.01-6.779,0-10.168a4.341,4.341,0,0,0-4.327-4.321q-8.367-.008-16.734,0a4.413,4.413,0,0,0-4.3,4.811c.028.257.134.393.4.4" transform="translate(-116.277 -100.034)" fill="#6d6d6d"/>
      <path id="Path_8274" data-name="Path 8274" d="M340.247,404.05q-4.059,0-8.118,0c-.9,0-1.2.3-1.2,1.211q0,2.9,0,5.793c0,1.369.211,1.582,1.578,1.583h15.326c.182,0,.366,0,.546-.013.843-.076,1.115-.375,1.116-1.229q0-3.034,0-6.067c0-.994-.28-1.277-1.27-1.278q-3.992,0-7.982,0" transform="translate(-300.741 -367.189)" fill="#6d6d6d"/>
      <path id="Path_8275" data-name="Path 8275" d="M159.077,1.855c1.109,0,2.219,0,3.328,0a4.015,4.015,0,0,1,4.143,2.967.478.478,0,0,0,.484.392q1.459,0,2.917,0a.441.441,0,0,0,.456-.364,4.07,4.07,0,0,1,2.815-2.856c.146-.048.282-.091.344-.261A1.2,1.2,0,0,0,172.375,0q-2.826,0-5.653,0h-5.79a2.459,2.459,0,0,0-2.19,1.246c-.3.489-.228.6.334.607" transform="translate(-144.101 0)" fill="#6d6d6d"/>
      <path id="Path_8276" data-name="Path 8276" d="M29.542,476.973c-.319.006-.639.013-.957,0a.514.514,0,0,0-.611.457,3.622,3.622,0,0,1-1.1,1.805,4.058,4.058,0,0,1-6.521-1.286,1.335,1.335,0,0,0-1.65-.974.444.444,0,0,1-.091,0c-.395-.03-.536.159-.531.545.013,1.185,0,2.369.007,3.554.006.8.343,1.118,1.155,1.12,1.595,0,3.189,0,4.784,0,1.64,0,3.281,0,4.921,0,.662,0,1.02-.329,1.026-.955.014-1.276,0-2.552.008-3.827,0-.314-.139-.44-.44-.435" transform="translate(-16.431 -433.435)" fill="#6d6d6d"/>
      <path id="Path_8277" data-name="Path 8277" d="M460.273,54.894c.618.005.638-.019.638-.643q0-4.332,0-8.665,0-4.127,0-8.254c0-1.1.141-1.07-1.054-1.066-.8,0-.8,0-.8.82q0,8.3,0,16.6c0,1.38-.177,1.2,1.213,1.207" transform="translate(-417.174 -32.957)" fill="#6d6d6d"/>
      <path id="Path_8278" data-name="Path 8278" d="M348.52,513.666c-.012-.2-.157-.24-.33-.2a5.056,5.056,0,0,1-1.045.049q-7.818,0-15.636,0a6.32,6.32,0,0,1-1.182-.045c-.143-.027-.266-.026-.335.143a1.212,1.212,0,0,0,1.16,1.758q4.057,0,8.114,0h3.6c1.535,0,3.069,0,4.6,0a.93.93,0,0,0,1.007-.617,2.782,2.782,0,0,0,.043-1.086" transform="translate(-299.78 -466.609)" fill="#6d6d6d"/>
      <path id="Path_8279" data-name="Path 8279" d="M178.16,495.993q-3.1,0-6.2,0c-1.869,0-3.737-.007-5.606,0-1.345.007-1.185-.189-1.194,1.178,0,.664.009.673.7.673q5.834,0,11.668,0c1.359,0,1.227.193,1.229-1.249,0-.551-.052-.6-.6-.6" transform="translate(-150.092 -450.741)" fill="#6d6d6d"/>
      <path id="Path_8280" data-name="Path 8280" d="M220.177,73.06c-2.582.025-5.164.007-7.745.009-.962,0-1.3.365-1.291,1.336,0,.4.147.528.539.524,1.518-.016,3.037-.007,4.556-.007,1.534,0,3.068,0,4.6,0,.2,0,.46.06.51-.244.148-.9-.167-1.626-1.171-1.616" transform="translate(-191.879 -66.395)" fill="#3b9e49"/>
      <path id="Path_8281" data-name="Path 8281" d="M59.759,479.09a2.517,2.517,0,0,0,2.3-1.36c.209-.362.133-.494-.29-.5-.666-.013-1.333,0-2,0s-1.333-.01-2,0c-.385.008-.467.156-.268.487a2.528,2.528,0,0,0,2.252,1.373" transform="translate(-52.166 -433.686)" fill="#6d6d6d"/>
      <path id="Path_8282" data-name="Path 8282" d="M177.89,168.935h.964v-1.368h0q.011-4.673,0-9.346v-9.9c0-1.054-.272-1.33-1.316-1.33h-15.46c-.3,0-.608-.009-.912.006-.656.034-.958.457-.936,1.293.014.532.038.546.886.547.762,0,.744,0,.765.743a69.511,69.511,0,0,1-.3,7.6c-.107,1.3-.211,2.6-.324,3.9-.125,1.451-.269,2.9-.388,4.354-.145,1.785-.253,3.574-.418,5.358a3.708,3.708,0,0,1-.649,2.15c-.132.161-.036.314.053.461a2.736,2.736,0,0,1,.379,1.481c-.006.563,0,1.125,0,1.688,0,.74,0,.742.723.742,3.832,0,7.662.009,11.493,0,1.139,0,1.343.141,1.378-.417l.007,0v-.614c0-.115,0-.242,0-.383a.907.907,0,0,0,0-.1v-4.33c0-.009,0-.018,0-.027l.02.027v-.685a1.85,1.85,0,0,1,1.85-1.85Z" transform="translate(-145.166 -133.581)" fill="#6d6d6d"/>
      <path id="Path_8283" data-name="Path 8283" d="M14.832,191.091c.012-.128.024-.256.036-.384.01-.105.017-.194.019-.272v-.008l.188-2.808c.009-.092.019-.194.029-.308,0-.015,0-.03,0-.045a2.214,2.214,0,0,0,.021-.453l.128-1.914-.04-.01a4.05,4.05,0,0,0,.039-.917c0-.748-.011-.759-.767-.759q-6.629,0-13.258,0c-1.41,0-1.219-.128-1.23,1.251a2.7,2.7,0,0,0,.011.341l.065,2.083a2.883,2.883,0,0,0,.063.905c.01.067.019.126.028.18l.181,2.157a4.891,4.891,0,0,0,.08,1.024c.016.156.031.312.046.468l.217,2.589c.073.961.143,1.922.228,2.882.12,1.36.213,2.722.352,4.08.069.669.1.667.761.667H9.281c1.382,0,2.765,0,4.147,0,.311,0,.526-.064.553-.437q.06-.835.122-1.67c.045-.542.558-6.609.73-8.647" transform="translate(0 -166.497)" fill="#6d6d6d"/>
      <path id="Path_8284" data-name="Path 8284" d="M28.161,404.307h0c-.033-.224-.167-.254-.562-.255q-2.757,0-5.514,0h-3.19c-.836,0-1.671,0-2.507,0-.194,0-.407-.022-.46.254a1.617,1.617,0,0,0,.034.84l.136,3.323c0,.055,0,.113,0,.173a1.78,1.78,0,0,0,.029.422v0h0c.053.192.2.207.624.207q2.619,0,5.237,0h2.5c1,0,2,0,3.006,0,.193,0,.4.022.479-.239a1.833,1.833,0,0,0,.075-.394h0V408.6c0-.032,0-.065,0-.1l.094-3.65c.007-.061.012-.125.016-.193a1.95,1.95,0,0,0,0-.35Z" transform="translate(-14.439 -367.19)" fill="#3b9e49"/>
      <rect id="Rectangle_18180" data-name="Rectangle 18180" width="3.611" height="9.068" transform="translate(45.15 4.784)" fill="#6d6d6d"/>
    </g>
  </g>
</svg>
