<svg xmlns="http://www.w3.org/2000/svg" width="51.169" height="43.464" viewBox="0 0 51.169 43.464">
  <g id="Group_8036" data-name="Group 8036" transform="translate(0 0)">
    <path id="Path_8270" data-name="Path 8270" d="M2424.118,60.139q-9.028,0-18.056,0a4.471,4.471,0,0,1-2.6-.631,3.786,3.786,0,0,1-1.793-3.287c-.006-3.636-.011-7.271.007-10.906a.789.789,0,0,0-.611-.906,3.938,3.938,0,0,1-2.5-3.586c-.008-4.175-.015-8.349,0-12.524a5.527,5.527,0,0,1,5.429-5.44q4.409-.036,8.819.008a1.088,1.088,0,0,0,1.148-.738c.517-1.12,1.075-2.221,1.643-3.316a3.8,3.8,0,0,1,3.58-2.108q4.956-.043,9.915,0a4,4,0,0,1,3.793,2.47c.482,1,1,1.991,1.454,3a1.013,1.013,0,0,0,1.071.69c2.835-.029,5.671,0,8.506-.017a5.589,5.589,0,0,1,4.858,2.46,4.905,4.905,0,0,1,.926,2.832c.026,4.227.018,8.454.009,12.681a3.953,3.953,0,0,1-2.55,3.607.727.727,0,0,0-.563.832c.017,3.531-.046,7.063.029,10.593a4.04,4.04,0,0,1-4.3,4.295c-6.071-.023-12.141-.007-18.212-.007m-9.94-1.711h8.4c.708,0,.708,0,.709-.728,0-.834-.008-1.669,0-2.5a.442.442,0,0,0-.427-.522,18.234,18.234,0,0,1-2.025-.482,10.507,10.507,0,0,1-5.754-4.326,10.788,10.788,0,0,1-1.771-4.687c-.046-.372-.208-.491-.574-.49q-4.407.016-8.813,0c-.409,0-.544.146-.543.549q.016,5.476.006,10.951a2.058,2.058,0,0,0,.336,1.13,2.362,2.362,0,0,0,2.165,1.109q4.146-.005,8.292,0m19.886,0c2.8,0,5.6.007,8.4,0a2.259,2.259,0,0,0,2.433-2.244c.014-3.65,0-7.3.012-10.951,0-.414-.155-.54-.554-.539q-4.407.016-8.813,0c-.375,0-.528.135-.565.5a9.262,9.262,0,0,1-.577,2.32,10.874,10.874,0,0,1-4.765,5.729,11.321,11.321,0,0,1-3.959,1.382c-.507.085-.714.257-.682.795a21.114,21.114,0,0,1,0,2.345c-.028.531.149.683.678.678,2.8-.024,5.6-.011,8.4-.012m-9.921-23.769a9.164,9.164,0,1,0,9.157,9.151,9.13,9.13,0,0,0-9.157-9.151m-.037-11.808q4.069,0,8.139,0c.5,0,.52-.049.287-.494-.442-.847-.895-1.69-1.3-2.553a2.244,2.244,0,0,0-2.147-1.389q-4.93-.028-9.86,0a2.266,2.266,0,0,0-2.182,1.419c-.389.834-.82,1.649-1.252,2.462-.281.53-.277.557.335.557q3.991,0,7.982,0m-13.155,10.918c0-2.851-.006-5.7.008-8.553,0-.423-.125-.6-.564-.582-.607.026-1.218.03-1.825,0-.473-.024-.594.176-.585.616.023,1.147.008,2.295.008,3.442,0,4.52.006,9.04-.009,13.56,0,.49.133.7.646.665.537-.035,1.078-.006,1.616-.008.7,0,.706-.006.706-.69q0-4.224,0-8.449m26.382-.052c0,2.869.006,5.737-.007,8.605,0,.414.109.61.557.592.625-.026,1.251-.017,1.877,0,.363.008.538-.1.537-.5q-.012-8.632,0-17.263c0-.4-.162-.518-.53-.508-.591.016-1.184.036-1.772-.006-.541-.038-.677.172-.672.689.022,2.8.01,5.6.011,8.4" transform="translate(-2398.557 -16.682)" fill="#6d6d6d"/>
    <path id="Path_8271" data-name="Path 8271" d="M2582.726,208.89c.678,0,1.357-.017,2.034,0,.855.027,1.186.378,1.2,1.237.009.7.013,1.391,0,2.086-.008.376.14.536.522.528.713-.014,1.426-.012,2.138,0,.8.014,1.172.343,1.188,1.136.028,1.39.026,2.782,0,4.172-.012.74-.377,1.066-1.121,1.078-.712.011-1.427.024-2.138,0-.465-.018-.612.169-.6.613.025.695.018,1.391,0,2.086a1.1,1.1,0,0,1-1.225,1.239q-2.008.028-4.016,0a1.1,1.1,0,0,1-1.219-1.244c-.015-.73-.013-1.461,0-2.191.005-.353-.134-.5-.493-.5q-1.121.018-2.243,0c-.743-.012-1.1-.339-1.115-1.083-.023-1.391-.027-2.782,0-4.172.017-.792.39-1.117,1.193-1.13.7-.012,1.391-.02,2.086,0,.437.014.584-.168.571-.588-.02-.677-.011-1.356,0-2.034.012-.857.344-1.206,1.2-1.232.677-.021,1.356,0,2.034,0" transform="translate(-2557.139 -188.82)" fill="#3b9e49"/>
  </g>
</svg>
