<svg xmlns="http://www.w3.org/2000/svg" xmlns:xlink="http://www.w3.org/1999/xlink" width="46.667" height="53.818" viewBox="0 0 46.667 53.818">
  <defs>
    <clipPath id="clip-path">
      <rect id="Rectangle_18211" data-name="Rectangle 18211" width="46.667" height="53.818" fill="#6d6d6d"/>
    </clipPath>
    <clipPath id="clip-path-2">
      <rect id="Rectangle_18212" data-name="Rectangle 18212" width="21.28" height="17.037" fill="#3b9e49"/>
    </clipPath>
  </defs>
  <g id="Group_16346" data-name="Group 16346" transform="translate(-309.778 -466.839)">
    <g id="Group_8107" data-name="Group 8107" transform="translate(309.778 466.839)">
      <g id="Group_8106" data-name="Group 8106" transform="translate(0 0)" clip-path="url(#clip-path)">
        <path id="Path_8476" data-name="Path 8476" d="M23.307,53.81c-3.24,0-6.48-.018-9.72.008a4.777,4.777,0,0,1-3.718-1.7C8.537,50.669,7.121,49.3,5.778,47.863a28.476,28.476,0,0,1-3.759-4.319,13.4,13.4,0,0,1-1.9-5.367,13.614,13.614,0,0,1,.41-5.528,12.929,12.929,0,0,1,4.331-6.573,12.255,12.255,0,0,1,5.677-2.637c.773-.142,1.076-.525,1.078-1.356.006-2.47,0-4.941.005-7.411A2.844,2.844,0,0,1,13,12a3.4,3.4,0,0,1,1.763-.365c1.445-.008,1.266.21,1.271-1.289.008-2.381,0-4.762,0-7.143a3.211,3.211,0,0,1,.638-2.115A2.649,2.649,0,0,1,18.857.024C21.721.039,24.588.1,27.448,0a2.974,2.974,0,0,1,3.2,3.2c-.017,2.524,0,5.048,0,7.572,0,.857,0,.857.85.858a4.249,4.249,0,0,1,2.051.286,2.836,2.836,0,0,1,1.516,2.757c.007,2.417,0,4.833,0,7.25,0,1.058.268,1.341,1.3,1.547a12.385,12.385,0,0,1,7.011,4.089,12.992,12.992,0,0,1,3.293,9.121A13.139,13.139,0,0,1,42.79,45.9c-2.109,2.163-4.16,4.382-6.276,6.538a4.252,4.252,0,0,1-3.111,1.37q-5.048-.009-10.1,0ZM10.026,35.061c.027.223.066.578.112.933a6.25,6.25,0,0,0,1.709,3.572c.776.814,1.635,1.551,2.452,2.327q3.328,3.16,6.653,6.322a3.417,3.417,0,0,0,4.76.012q4.406-4.166,8.791-8.353a6.57,6.57,0,0,0,2.061-5.727,7.074,7.074,0,0,0-6.649-6.209,7.481,7.481,0,0,0-5.772,1.991,1.117,1.117,0,0,1-1.595.014A7.58,7.58,0,0,0,15,28.306a7.1,7.1,0,0,0-4.974,6.755M23.307,11.636c1.575,0,3.151-.011,4.726.007.421,0,.567-.142.562-.561-.018-1.36-.021-2.721,0-4.081.007-.455-.165-.609-.6-.576a9.527,9.527,0,0,1-1.02,0,1.023,1.023,0,0,1-1.056-.984,1.021,1.021,0,0,1,1.023-.97,10.111,10.111,0,0,1,1.074,0c.405.021.606-.123.576-.553-.021-.3,0-.608,0-.913-.01-.73-.267-1-1.015-1q-4.243-.01-8.485,0c-.736,0-1,.278-1,1.016,0,2.667.01,5.335-.012,8,0,.516.194.632.664.625,1.521-.022,3.043-.008,4.565-.009" transform="translate(0 0)" fill="#6d6d6d"/>
      </g>
    </g>
    <g id="Group_8109" data-name="Group 8109" transform="translate(322.471 496.893)">
      <g id="Group_8108" data-name="Group 8108" transform="translate(0 0)" clip-path="url(#clip-path-2)">
        <path id="Path_8477" data-name="Path 8477" d="M19.6,9.582q-3.518,3.345-7.038,6.687a2.734,2.734,0,0,1-3.81-.009Q6.078,13.735,3.42,11.2c-.654-.621-1.341-1.211-1.963-1.863A5.011,5.011,0,0,1,.089,6.476C.052,6.192.022,5.907,0,5.729A5.688,5.688,0,0,1,3.982.321a6.069,6.069,0,0,1,6.042,1.31A.894.894,0,0,0,11.3,1.62,5.989,5.989,0,0,1,15.921.026,5.663,5.663,0,0,1,21.245,5,5.262,5.262,0,0,1,19.6,9.582" transform="translate(0 0)" fill="#3b9e49"/>
      </g>
    </g>
  </g>
</svg>
