<svg id="Group_8103" data-name="Group 8103" xmlns="http://www.w3.org/2000/svg" xmlns:xlink="http://www.w3.org/1999/xlink" width="66.576" height="54.232" viewBox="0 0 66.576 54.232">
  <defs>
    <clipPath id="clip-path">
      <rect id="Rectangle_18209" data-name="Rectangle 18209" width="66.576" height="54.232" fill="#6d6d6d"/>
    </clipPath>
  </defs>
  <g id="Group_8102" data-name="Group 8102" clip-path="url(#clip-path)">
    <path id="Path_8461" data-name="Path 8461" d="M50.447,18.545A30.263,30.263,0,0,0,46.241,7.991a17.569,17.569,0,0,0-7.3-6.428A18.592,18.592,0,0,0,26.919.543a6.315,6.315,0,0,1-2.884.022A18.991,18.991,0,0,0,13.566.981C8.314,2.728,4.852,6.465,2.429,11.258A24.568,24.568,0,0,0,.012,22.378C-.011,26.4.007,30.421.007,34.443q0,6.369,0,12.737c0,.636.044.676.684.685,2.658.037,5.317.069,7.975.112.864.014,1.728.063,2.592.084a.9.9,0,0,1,.627.3,16.178,16.178,0,0,0,6.571,3.755,24.488,24.488,0,0,0,12.1.54,16.293,16.293,0,0,0,8.462-4.152,2.477,2.477,0,0,1,1.887-.725c3.172.02,6.345,0,9.517.011.376,0,.594-.049.6-.511.01-4.758-.025-9.515.016-14.273.017-1.9-.007-3.811-.02-5.717a40.524,40.524,0,0,0-.572-8.748m-2.966,5.884a33.673,33.673,0,0,1-1.672,11.055,27.356,27.356,0,0,1-5.638,9.744,19.68,19.68,0,0,1-5.287,4.337,17.755,17.755,0,0,1-6.746,1.913,18.089,18.089,0,0,1-2.4.1,19.848,19.848,0,0,1-9.1-1.8,15.957,15.957,0,0,1-3.809-2.655A27.629,27.629,0,0,1,5.113,34.87a32.609,32.609,0,0,1-1.421-8.35c-.024-.507.153-.69.632-.8a28.368,28.368,0,0,0,4.165-1.308,18.257,18.257,0,0,0,5.6-3.741,54.008,54.008,0,0,0,6.095-6.784c.384-.5.392-.494.776-.015a25.2,25.2,0,0,0,14.551,9.148,26.775,26.775,0,0,0,10.539.207c1.434-.253,1.444-.263,1.43,1.2" transform="translate(0 0)" fill="#6d6d6d"/>
    <path id="Path_8462" data-name="Path 8462" d="M156.619,94.338h0c0-2.176-.039-4.356.012-6.532.046-1.878-.866-2.795-2.516-2.628-.371.039-.468-.155-.46-.491.015-.626,0-1.248,0-1.875,0-.158.046-.383-.081-.456-.51-.286-.39-.754-.387-1.183a.589.589,0,0,0-.626-.68c-.433-.023-.866-.019-1.3-.008-.893.027-1.017.17-1.032,1.047,0,.224.116.506-.147.661a.651.651,0,0,0-.3.653c0,.464-.012.928-.012,1.391-.012,1.059.116.924-.908.943a1.87,1.87,0,0,0-1.983,1.948c-.031,1.376-.043,2.752-.058,4.128-.017,1.352-.02,2.7-.019,4.057h9.817c0-.326,0-.65,0-.976M151.742,82.19c-.367,0-.711.085-.673-.421.019-.286.1-.506.421-.421s.846-.22.866.444c.019.557-.414.344-.615.4" transform="translate(-90.061 -49.371)" fill="#6d6d6d"/>
    <path id="Path_8463" data-name="Path 8463" d="M146.8,118.865c0,1.8.009,3.607.012,5.409,0,.352.019.7.054,1.055a1.878,1.878,0,0,0,1.933,1.809c1.921.019,3.842.023,5.763,0a1.916,1.916,0,0,0,2.006-1.8,4.826,4.826,0,0,0,.046-.669q0-2.9,0-5.8Z" transform="translate(-90.061 -72.922)" fill="#3b9e49"/>
    <path id="Path_8464" data-name="Path 8464" d="M140.4,76.2a.767.767,0,0,0-.422-.33.768.768,0,0,0,0-1.464.761.761,0,0,0,.424-.33.772.772,0,0,0-.258-1.062l-5.767-3.51a.773.773,0,0,0-.8,1.321l5.767,3.51c.017.01.036.014.053.023l-6.3-.126a.786.786,0,0,0-.788.757.774.774,0,0,0,.758.789l6.351.127a.766.766,0,0,0-.077.036l-5.767,3.51a.773.773,0,1,0,.8,1.321l5.767-3.51A.773.773,0,0,0,140.4,76.2" transform="translate(-81.168 -42.572)" fill="#6d6d6d"/>
  </g>
</svg>
