<svg xmlns="http://www.w3.org/2000/svg" width="150" height="149" viewBox="0 0 150 149">
  <g id="Group_16343" data-name="Group 16343" transform="translate(-208 -218)">
    <g id="Ellipse_468" data-name="Ellipse 468" transform="translate(208 218)" fill="#afe3b6" stroke="#fff" stroke-width="0.3" style="mix-blend-mode: multiply;isolation: isolate">
      <ellipse cx="75" cy="74.5" rx="75" ry="74.5" stroke="none"/>
      <ellipse cx="75" cy="74.5" rx="74.85" ry="74.35" fill="none"/>
    </g>
    <g id="Path_16307" data-name="Path 16307" transform="translate(457.576 -51.522)" fill="#3b9e49" stroke-linecap="round" stroke-linejoin="round">
      <path d="M -171.3632202148438 361.2030944824219 L -172.8632202148438 361.2030944824219 L -175.5791625976562 361.2030944824219 L -177.0791625976562 361.2030944824219 L -177.0791625976562 359.7030944824219 L -177.0791625976562 316.8857421875 C -182.58203125 315.583740234375 -186.5850219726562 310.6314392089844 -186.5850219726562 304.8638610839844 C -186.5850219726562 301.5612182617188 -185.2989959716797 298.4563293457031 -182.9638366699219 296.1211853027344 C -180.6287078857422 293.7860412597656 -177.5238342285156 292.5 -174.22119140625 292.5 C -170.9188079833984 292.5 -167.8140411376953 293.7860107421875 -165.4788055419922 296.1211547851562 C -163.1434783935547 298.4563903808594 -161.8573608398438 301.561279296875 -161.8573608398438 304.8638610839844 C -161.8573608398438 310.6314392089844 -165.8603515625 315.583740234375 -171.3632202148438 316.8857421875 L -171.3632202148438 359.7030944824219 L -171.3632202148438 361.2030944824219 Z" stroke="none"/>
      <path d="M -174.22119140625 294 C -180.2214050292969 294 -185.0850219726562 298.8636169433594 -185.0850219726562 304.8638610839844 C -185.0850219726562 310.4030456542969 -180.9364013671875 314.9644775390625 -175.5791625976562 315.6339721679688 L -175.5791625976562 359.7030944824219 L -172.8632202148438 359.7030944824219 L -172.8632202148438 315.6339721679688 C -167.5059814453125 314.9644775390625 -163.3573608398438 310.4030456542969 -163.3573608398438 304.8638610839844 C -163.3573608398438 298.8636169433594 -168.2216491699219 294 -174.22119140625 294 M -174.22119140625 291 C -170.5181579589844 291 -167.0367126464844 292.4420471191406 -164.4181671142578 295.0604858398438 C -161.7995147705078 297.6790161132812 -160.3573608398438 301.1605834960938 -160.3573608398438 304.8638610839844 C -160.3573608398438 308.2638549804688 -161.6016540527344 311.5334167480469 -163.8610076904297 314.0702819824219 C -165.4940795898438 315.9039306640625 -167.5678558349609 317.2582092285156 -169.8632202148438 318.0177612304688 L -169.8632202148438 359.7030944824219 C -169.8632202148438 361.3599548339844 -171.2063751220703 362.7030944824219 -172.8632202148438 362.7030944824219 L -175.5791625976562 362.7030944824219 C -177.2360076904297 362.7030944824219 -178.5791625976562 361.3599548339844 -178.5791625976562 359.7030944824219 L -178.5791625976562 318.0177612304688 C -180.8745269775391 317.2582092285156 -182.9483032226562 315.9039306640625 -184.5813751220703 314.0702819824219 C -186.8407287597656 311.5334167480469 -188.0850219726562 308.2638549804688 -188.0850219726562 304.8638610839844 C -188.0850219726562 301.1605529785156 -186.6429748535156 297.6789855957031 -184.0245208740234 295.0605163574219 C -181.4060516357422 292.4420471191406 -177.9244842529297 291 -174.22119140625 291 Z" stroke="none" fill="#fff"/>
    </g>
  </g>
</svg>
