<svg xmlns="http://www.w3.org/2000/svg" xmlns:xlink="http://www.w3.org/1999/xlink" width="50.785" height="50.862" viewBox="0 0 50.785 50.862">
  <defs>
    <clipPath id="clip-path">
      <rect id="Rectangle_18210" data-name="Rectangle 18210" width="50.785" height="50.862" fill="#6d6d6d"/>
    </clipPath>
  </defs>
  <g id="Group_8105" data-name="Group 8105" transform="translate(0 0)">
    <g id="Group_8104" data-name="Group 8104" transform="translate(0 0)" clip-path="url(#clip-path)">
      <path id="Path_8465" data-name="Path 8465" d="M29.8,59.993a1.759,1.759,0,0,0-1.309-1.854,2.685,2.685,0,0,0-.978-.125H2.275A1.978,1.978,0,0,0,0,60.289C0,66.31,0,74.544,0,80.565a2.979,2.979,0,0,0,.028.55c0,.019.009.042.013.062l0,.007a2.075,2.075,0,0,0,.1.324A1.838,1.838,0,0,0,2.125,82.65H27.67a4.187,4.187,0,0,0,.471-.014,1.767,1.767,0,0,0,1.418-.866,1.114,1.114,0,0,0,.226-.711,4.1,4.1,0,0,0,.016-.476c0-2.6,0-7.413,0-10.013q0-5.288,0-10.577M1.925,63.774c0-1.45.628-2.067,2.09-2.067q10.887,0,21.774,0c1.491,0,2.088.6,2.089,2.1q0,5.679,0,11.358c0,1.492-.6,2.087-2.1,2.087q-5.444,0-10.888,0-5.469,0-10.939,0a1.776,1.776,0,0,1-2.03-2.019q0-5.732,0-11.463" transform="translate(0 -31.792)" fill="#6d6d6d"/>
      <path id="Path_8466" data-name="Path 8466" d="M81.863,12.9c-.03,2.163-.007,4.327-.007,6.491q0,4,0,8.009c0,.787.03.815.833.816q2.774,0,5.549,0c.837,0,.852-.016.852-.845,0-5.008-.015-10.016.011-15.024A18.633,18.633,0,0,1,89.7,7.474a5.184,5.184,0,0,0-1.676-5.706C87.351,1.185,86.6.7,85.892.161A.56.56,0,0,0,85.1.166c-.562.441-1.144.856-1.721,1.278a5.213,5.213,0,0,0-2.133,5.745,25.3,25.3,0,0,1,.618,5.706" transform="translate(-44.432 0)" fill="#6d6d6d"/>
      <path id="Path_8467" data-name="Path 8467" d="M2.228,24.886q12.673,0,25.345,0A1.961,1.961,0,0,0,29.8,22.636q0-10.08,0-20.161C29.8.865,29.193.25,27.593.25q-6.337,0-12.673,0Q8.532.25,2.143.25A1.87,1.87,0,0,0,0,2.4Q0,12.536,0,22.668a1.958,1.958,0,0,0,2.227,2.217M2.7,2.172H27.15c.725,0,.728,0,.728.731q0,9.634,0,19.268c0,.717-.006.723-.739.723H14.888q-6.126,0-12.253,0c-.7,0-.711-.015-.711-.7q0-9.634,0-19.269c0-.734.023-.757.774-.757" transform="translate(0 -0.137)" fill="#6d6d6d"/>
      <path id="Path_8468" data-name="Path 8468" d="M88.65,86.23c-.486-1-.941-2.024-1.42-3.033-1.429-3.008-2.877-6.007-4.285-9.026-.213-.457-.445-.755-.842-.744l0-.013H76.026v0c-.435-.037-.687.317-.911.8-.85,1.855-1.734,3.7-2.609,5.539-1.025,2.16-2.046,4.322-3.084,6.475a.81.81,0,0,0,.124,1,11.024,11.024,0,0,0,3.31,2.519.65.65,0,0,0,.18.067l1.986.74h0a2.585,2.585,0,0,0,.429.13,15.728,15.728,0,0,0,3.463.405,17.276,17.276,0,0,0,3.849-.424.914.914,0,0,0,.363-.144l1.9-.706a.812.812,0,0,0,.3-.111,10.249,10.249,0,0,0,3.21-2.475.839.839,0,0,0,.116-1" transform="translate(-37.98 -40.231)" fill="#3b9e49"/>
      <path id="Path_8469" data-name="Path 8469" d="M89.378,65.825c-.993.029-1.987.009-2.98.009H83.993c-1.225,0-1.225,0-1.2,1.231.012.62.076.69.7.691,1.76,0,3.52.007,5.281,0,1.387-.006,1.238.174,1.266-1.257.01-.49-.145-.689-.656-.674" transform="translate(-45.367 -36.072)" fill="#6d6d6d"/>
      <path id="Path_8470" data-name="Path 8470" d="M8.4,82.063q4.606,0,9.213,0c.663,0,.7-.038.7-.724q0-2.748,0-5.5,0-2.774,0-5.549c0-.654-.039-.7-.669-.7q-4.633,0-9.265,0c-.624,0-.683.062-.684.7q0,5.522,0,11.045c0,.669.054.725.709.725" transform="translate(-4.216 -38.138)" fill="#3b9e49"/>
      <path id="Path_8471" data-name="Path 8471" d="M39.2,87.788c0-.7-.014-1.4,0-2.094.012-.432-.174-.591-.592-.587-1.152.012-2.3.01-3.455,0-.388,0-.581.139-.579.549q.014,2.172,0,4.345c0,.4.167.569.566.565,1.152-.009,2.3-.013,3.455,0,.46.006.616-.2.6-.635-.019-.715,0-1.431,0-2.147" transform="translate(-18.952 -46.639)" fill="#6d6d6d"/>
      <path id="Path_8472" data-name="Path 8472" d="M35.185,75.053q1.726-.024,3.452,0c.438.006.581-.183.57-.6-.019-.7,0-1.395,0-2.092,0-.715-.015-1.43,0-2.144.012-.443-.155-.636-.609-.63q-1.673.022-3.347,0c-.5-.007-.677.224-.673.7q.019,2.066,0,4.133c0,.435.148.639.607.632" transform="translate(-18.949 -38.134)" fill="#6d6d6d"/>
      <path id="Path_8473" data-name="Path 8473" d="M48.78,90.571q1.7-.022,3.4,0c.435.007.586-.177.575-.6-.019-.713-.005-1.428-.005-2.143,0-.732-.012-1.464,0-2.2.008-.384-.155-.531-.529-.527q-1.751.012-3.5,0c-.378,0-.524.155-.522.534.012,1.446.014,2.893,0,4.339,0,.426.155.594.583.588" transform="translate(-26.412 -46.641)" fill="#6d6d6d"/>
      <path id="Path_8474" data-name="Path 8474" d="M48.725,75.055q1.753-.013,3.506,0c.381,0,.524-.163.522-.538q-.016-2.172,0-4.343c0-.392-.146-.581-.55-.579q-1.727.011-3.454,0c-.4,0-.555.189-.547.581.015.715,0,1.43,0,2.146,0,.732.01,1.465,0,2.2-.008.379.146.538.523.536" transform="translate(-26.415 -38.138)" fill="#6d6d6d"/>
      <path id="Path_8475" data-name="Path 8475" d="M8.472,25.563q5.313,0,10.625,0,5.365,0,10.73,0c.694,0,.723-.027.723-.694q0-8.113,0-16.226c0-.668-.03-.7-.72-.7q-10.7,0-21.407,0c-.688,0-.729.042-.729.753q0,8.061,0,16.121c0,.73.017.744.777.744" transform="translate(-4.216 -4.354)" fill="#6d6d6d"/>
    </g>
  </g>
</svg>
