<svg xmlns="http://www.w3.org/2000/svg" xmlns:xlink="http://www.w3.org/1999/xlink" width="69" height="69" viewBox="0 0 69 69">
  <defs>
    <filter id="Ellipse_384" x="0" y="0" width="69" height="69" filterUnits="userSpaceOnUse">
      <feOffset dy="3" input="SourceAlpha"/>
      <feGaussianBlur stdDeviation="3" result="blur"/>
      <feFlood flood-opacity="0.161"/>
      <feComposite operator="in" in2="blur"/>
      <feComposite in="SourceGraphic"/>
    </filter>
  </defs>
  <g id="Group_16347" data-name="Group 16347" transform="translate(-173.25 -600)">
    <g id="Group_6907" data-name="Group 6907" transform="translate(117.728 61.478)">
      <g id="Ellipse_386" data-name="Ellipse 386" transform="translate(59.522 539.522)" fill="#fff" stroke="#b6b7b7" stroke-width="1">
        <circle cx="30.5" cy="30.5" r="30.5" stroke="none"/>
        <circle cx="30.5" cy="30.5" r="30" fill="none"/>
      </g>
      <g transform="matrix(1, 0, 0, 1, 55.52, 538.52)" filter="url(#Ellipse_384)">
        <g id="Ellipse_384-2" data-name="Ellipse 384" transform="translate(9 6)" fill="#fff" stroke="#b6b7b7" stroke-width="1">
          <circle cx="25.5" cy="25.5" r="25.5" stroke="none"/>
          <circle cx="25.5" cy="25.5" r="25" fill="none"/>
        </g>
      </g>
    </g>
    <g id="Group_6910" data-name="Group 6910" transform="translate(193.163 617.978)">
      <path id="Path_6987" data-name="Path 6987" d="M480.2,2622.778a2.513,2.513,0,0,1-1.96-.966,2.3,2.3,0,0,1-.274-2.513,2.258,2.258,0,0,1,2.115-1.388c2.688-.024,5.376-.031,8.063,0a3.255,3.255,0,0,1,3.127,3.45,1.5,1.5,0,0,1-1,1.3c-.1.047-.216.078-.357.128.276.934.539,1.85.819,2.76.253.823.262.821,1.152.821.852,0,1.7,0,2.557,0,.449,0,.524-.079.524-.53,0-1.493.014-2.987-.005-4.48a4.682,4.682,0,0,1,1.163-3.249,1.858,1.858,0,0,0,.121-.155.869.869,0,0,0,.048-.15c-.259,0-.5.005-.736,0a.639.639,0,0,1-.7-.713c0-.39,0-.78,0-1.223-.814,0-1.583.005-2.352,0-.325,0-.6-.169-.6-.495a1.182,1.182,0,0,1,.28-.662c.07-.093.29-.095.442-.1.6-.01,1.206,0,1.809,0h.426c0-.412,0-.776,0-1.14,0-.566.208-.79.773-.792q1.888-.007,3.776,0a2.571,2.571,0,0,1,2.593,1.934,2.545,2.545,0,0,1-1.395,2.95.323.323,0,0,0-.2.428c.331,1.535.661,3.071.977,4.609.052.253.159.326.415.344a10.412,10.412,0,0,1,2.131.243,4.069,4.069,0,0,1,2.9,3.763.7.7,0,0,1-.719.831c-.074.008-.147.025-.229.039a13.2,13.2,0,0,1,.673,1.207,4.16,4.16,0,1,1-7.874,2.612c-.073-.305-.192-.387-.5-.386q-5.094.016-10.187,0c-.281,0-.4.068-.478.361a4.157,4.157,0,0,1-8.077,0,.408.408,0,0,0-.48-.368c-1.119.011-1.2-.067-1.18-1.208a27.728,27.728,0,0,1,.108-3.175,5.975,5.975,0,0,1,2.088-3.765c.069-.061.134-.125.2-.192C480.185,2622.891,480.181,2622.858,480.2,2622.778Zm-.213,2.985a1.082,1.082,0,0,0,.135-.069,5.977,5.977,0,0,1,9.415,4.016c.037.245.146.291.361.291q4.169-.007,8.338,0c.255,0,.374-.075.427-.33a2.96,2.96,0,0,1,.936-1.778,1.974,1.974,0,0,0,.722-1.916c-.073-1-.03-2.017-.169-3.009-.16-1.151-.461-2.282-.7-3.421-.119-.557-.247-1.112-.369-1.663a3.328,3.328,0,0,0-2.844,3.272c-.014,1.611,0,3.222-.007,4.833a1.532,1.532,0,0,1-1.649,1.639c-1.062,0-2.124,0-3.186,0a1.592,1.592,0,0,1-1.767-1.337c-.316-1.067-.644-2.13-.945-3.2a.4.4,0,0,0-.46-.345c-1.311.014-2.622.011-3.933.005a5.112,5.112,0,0,0-2.7.736,4.966,4.966,0,0,0-1.916,2.013Zm-.875,4.2h9.148a4.64,4.64,0,0,0-4.572-4.125A4.467,4.467,0,0,0,479.108,2629.964Zm5.755-8.469q2.3,0,4.6,0c.49,0,.6-.145.518-.627a2.051,2.051,0,0,0-2.134-1.7q-3.734-.008-7.469,0a2.258,2.258,0,0,0-.543.062,1.081,1.081,0,0,0-.8.833.959.959,0,0,0,.343,1.094,1.933,1.933,0,0,0,.97.327C481.848,2621.515,483.355,2621.5,484.862,2621.5Zm14.961,9.127a2.89,2.89,0,1,0,2.9-2.888A2.89,2.89,0,0,0,499.823,2630.622Zm-1.781-16.679v0c-.537,0-1.074.006-1.61,0-.213,0-.306.063-.3.291.011.68.007,1.36,0,2.041,0,.2.067.282.275.281,1.047-.007,2.1.014,3.142-.009a1.3,1.3,0,0,0-.053-2.6C499.012,2613.937,498.527,2613.943,498.043,2613.943Zm-17.368,17.327a2.874,2.874,0,0,0,3.194,2.214,2.709,2.709,0,0,0,2.362-2.214Zm20.92-4.765h3.847a3.145,3.145,0,0,0-3.868-2.243c0,.654,0,1.319,0,1.984C501.576,2626.348,501.59,2626.45,501.595,2626.505Z" transform="translate(-477.708 -2610.122)" fill="#b6b7b7"/>
      <path id="Path_6988" data-name="Path 6988" d="M519.671,2581.6c-1.153,0-2.307,0-3.46,0a3.466,3.466,0,0,1-.625-.042.5.5,0,0,1-.45-.554,1.118,1.118,0,0,1,.345-.6c.1-.1.321-.085.487-.085q3.7-.007,7.391,0a1.793,1.793,0,0,1,.351.023.589.589,0,0,1,.5.613.578.578,0,0,1-.5.612,2.115,2.115,0,0,1-.429.033Q521.479,2581.6,519.671,2581.6Z" transform="translate(-512.18 -2580.318)" fill="#b6b7b7"/>
      <path id="Path_6989" data-name="Path 6989" d="M482.835,2626.453h-3.58a2.543,2.543,0,0,1-.353-.011.635.635,0,0,1-.573-.641.665.665,0,0,1,.6-.625,2.3,2.3,0,0,1,.275,0q3.62,0,7.239,0a1.774,1.774,0,0,1,.5.059.547.547,0,0,1,.416.591.568.568,0,0,1-.44.579,1.865,1.865,0,0,1-.467.047c-1.207,0-2.413,0-3.62,0Z" transform="translate(-478.279 -2621.632)" fill="#b6b7b7"/>
      <path id="Path_6990" data-name="Path 6990" d="M785.591,2830.352a.846.846,0,0,1-.85.846.855.855,0,1,1,.85-.846Z" transform="translate(-759.736 -2809.839)" fill="#b6b7b7"/>
    </g>
    <g id="Ellipse_389" data-name="Ellipse 389" transform="translate(218.25 604)" fill="#b6b7b7" stroke="#fff" stroke-width="1">
      <circle cx="6.5" cy="6.5" r="6.5" stroke="none"/>
      <circle cx="6.5" cy="6.5" r="6" fill="none"/>
    </g>
  </g>
</svg>
