<svg id="Group_16125" data-name="Group 16125" xmlns="http://www.w3.org/2000/svg" xmlns:xlink="http://www.w3.org/1999/xlink" width="44.125" height="51.359" viewBox="0 0 44.125 51.359">
  <defs>
    <clipPath id="clip-path">
      <rect id="Rectangle_19428" data-name="Rectangle 19428" width="44.125" height="51.359" fill="#3b9e49"/>
    </clipPath>
  </defs>
  <g id="Group_16124" data-name="Group 16124" clip-path="url(#clip-path)">
    <path id="Path_16453" data-name="Path 16453" d="M44.094,5.558A5.427,5.427,0,0,0,43,2.338,5.746,5.746,0,0,0,38,0Q22.045.013,6.088.01A8.414,8.414,0,0,0,4.453.158,5.645,5.645,0,0,0,0,5.681Q-.008,15.69,0,25.7,0,35.65,0,45.6a5.737,5.737,0,0,0,6.12,5.755q11.68-.013,23.361-.009a17.072,17.072,0,0,0,2.023-.123,14.006,14.006,0,0,0,8.731-4.49,13.463,13.463,0,0,0,3.832-9.264c.094-10.638.043-21.278.024-31.916M36.942,24.021c-.031,1.053-.006,2.11-.009,3.164,0,1.009-.034,1.042-1.024,1.042q-6.954,0-13.907,0-6.919,0-13.834,0c-.949,0-.989-.041-.993-1q-.007-1.509,0-3.017c0-1.059.021-1.078,1.061-1.078q10.889,0,21.781,0c2.011,0,4.023.024,6.034-.012.688-.013.91.247.891.9m-7.363,13c0,1.009-.034,1.044-1.025,1.044q-6.289,0-12.581,0-3.9,0-7.8,0c-.925,0-.994-.074-1-1.014-.006-1.08.024-2.16-.009-3.238-.022-.691.234-.955.943-.949,3.432.024,6.866.01,10.3.01q5.04,0,10.079,0c1.065,0,1.089.025,1.092,1.056s0,2.059,0,3.089M8.222,13.289q10.158,0,20.315,0,3.681,0,7.36,0c.971,0,1.031.063,1.036,1.053,0,1.055.006,2.11,0,3.164-.007.879-.093.969-.974.969q-6.954.007-13.911,0-6.881,0-13.764,0c-1.059,0-1.1-.049-1.108-1.131q0-1.509,0-3.017c.006-.975.068-1.04,1.047-1.042" transform="translate(0 0)" fill="#3b9e49"/>
  </g>
</svg>
