<svg id="Group_16463" data-name="Group 16463" xmlns="http://www.w3.org/2000/svg" xmlns:xlink="http://www.w3.org/1999/xlink" width="62.626" height="52.552" viewBox="0 0 62.626 52.552">
  <defs>
    <clipPath id="clip-path">
      <rect id="Rectangle_20576" data-name="Rectangle 20576" width="62.626" height="52.552" fill="#3b9e49"/>
    </clipPath>
  </defs>
  <g id="Group_16462" data-name="Group 16462" clip-path="url(#clip-path)">
    <path id="Path_16656" data-name="Path 16656" d="M31.336,0q14.5,0,28.994,0a2.071,2.071,0,0,1,2.217,2.62,2.178,2.178,0,0,1-2.125,1.566c-.732.025-1.465.022-2.2,0-.449-.011-.648.156-.632.62.022.637,0,1.276,0,1.914q0,14.426,0,28.852a6.453,6.453,0,0,1-5.257,6.413A6.945,6.945,0,0,1,51,42.076q-8.294.008-16.588,0c-.948,0-.951,0-.953.934,0,1.536.015,3.072-.008,4.608-.008.547.176.747.738.742,2.457-.023,4.915-.013,7.372-.008a2.108,2.108,0,0,1,2.272,2.016A2.133,2.133,0,0,1,41.6,52.54q-10.278.024-20.557,0a2.1,2.1,0,1,1,.031-4.185c2.434-.006,4.868-.019,7.3.01.617.007.835-.182.82-.807-.035-1.488-.043-2.978,0-4.465.022-.719-.223-.933-.935-.93-5.387.024-10.775.015-16.163.012a6.669,6.669,0,0,1-6.135-3.263,6.762,6.762,0,0,1-.911-3.593q0-14.993,0-29.986c0-1.137,0-1.136-1.1-1.138-.591,0-1.183.019-1.772-.009A2.175,2.175,0,0,1,0,2.025,2.087,2.087,0,0,1,2.271,0Q16.8,0,31.336,0M23.067,20.886q0-5.527,0-11.054c0-1.234-.419-1.644-1.669-1.647q-3.72-.007-7.44,0c-1.228,0-1.72.481-1.721,1.723q-.011,10.983,0,21.966c0,1.22.443,1.631,1.691,1.633q3.755.006,7.511,0c1.3,0,1.627-.329,1.628-1.639q0-5.491,0-10.983M39.57,23.9c0,2.717,0,5.434,0,8.151,0,1.072.378,1.45,1.454,1.453q3.9.014,7.8,0c1.107,0,1.571-.433,1.574-1.534q.02-8.08,0-16.16c0-1.092-.484-1.543-1.569-1.546q-3.827-.009-7.655,0c-1.206,0-1.6.4-1.6,1.627q-.007,4,0,8.009m-2.626,3.3c0-1.582.009-3.164,0-4.747a1.326,1.326,0,0,0-1.469-1.507q-3.932-.019-7.864,0a1.318,1.318,0,0,0-1.489,1.484q-.015,4.817,0,9.635A1.249,1.249,0,0,0,27.549,33.5q3.967.015,7.934,0c1.016,0,1.453-.453,1.459-1.482.009-1.606,0-3.211,0-4.817" transform="translate(0 0.001)" fill="#3b9e49"/>
  </g>
</svg>
