<svg xmlns="http://www.w3.org/2000/svg" width="44.572" height="50.359" viewBox="0 0 44.572 50.359">
  <g id="Group_16343" data-name="Group 16343" transform="translate(-326.763 -610.5)">
    <g id="Group_8041" data-name="Group 8041" transform="translate(326.763 610.5)">
      <path id="Path_8258" data-name="Path 8258" d="M1893.811,954.45c0-5.036.018-10.073-.009-15.109a6.728,6.728,0,0,1,1.955-5.06,6.157,6.157,0,0,1,4.359-1.88c5.588-.036,11.177-.061,16.764,0a6.493,6.493,0,0,1,6.266,5.8,17.882,17.882,0,0,1,.075,1.807q0,14.875,0,29.751c0,.207,0,.414-.006.621a.581.581,0,0,1-.681.649c-.12-.005-.241,0-.362,0h-27.319c-1,0-1.041-.042-1.041-1.057q0-7.761,0-15.522m24.231-1.921c0-3.5-.031-7,.015-10.5a2.443,2.443,0,0,0-2.5-2.5c-4.691.021-9.381,0-14.072.01a2.348,2.348,0,0,0-2.552,2.5q-.017,10.45,0,20.9a2.426,2.426,0,0,0,2.592,2.544q6.958,0,13.917,0a2.411,2.411,0,0,0,2.6-2.611q.005-5.174,0-10.347" transform="translate(-1893.802 -920.672)" fill="#6d6d6d"/>
      <path id="Path_8259" data-name="Path 8259" d="M1955.972,825.637q-3.982,0-7.963,0c-.988,0-1.226-.237-1.228-1.216,0-1.327,0-2.654,0-3.981,0-.817.229-1.043,1.05-1.044q8.144,0,16.288,0c.844,0,1.113.271,1.116,1.118q.008,1.991,0,3.981c-.005.882-.267,1.14-1.145,1.141q-4.059,0-8.118,0" transform="translate(-1941.295 -819.393)" fill="#6d6d6d"/>
      <path id="Path_8260" data-name="Path 8260" d="M2242.321,1116.765c-1.242,0-2.484,0-3.725,0-.658,0-.721-.062-.722-.7,0-1.587-.012-3.174,0-4.76a4.067,4.067,0,0,1,4.119-4.092,7.5,7.5,0,0,1,1.445.049,4.041,4.041,0,0,1,3.353,4.024c.028,1.621-.005,3.243.013,4.863.006.488-.21.627-.657.622-1.276-.014-2.552,0-3.829,0" transform="translate(-2202.255 -1077.411)" fill="#6d6d6d"/>
      <path id="Path_8261" data-name="Path 8261" d="M2242.311,1211.5h3.877c.292,0,.582.011.575.411a55.416,55.416,0,0,1-.087,5.679,4,4,0,0,1-3.7,3.452,4.729,4.729,0,0,1-3.437-.8,4.139,4.139,0,0,1-1.693-3.331c-.022-1.585.008-3.171-.013-4.756-.007-.488.152-.676.653-.666,1.275.025,2.55.008,3.825.009" transform="translate(-2202.223 -1170.908)" fill="#3b9e49"/>
      <path id="Path_8262" data-name="Path 8262" d="M1980.087,892.31c1.914,0,3.829.012,5.743-.008.483-.005.7.139.667.646-.031.533,0,1.069-.008,1.6-.005.606-.071.676-.694.677q-3.6.006-7.192,0c-1.432,0-2.863,0-4.295,0-.647,0-.7-.066-.708-.713,0-.517.024-1.036-.008-1.552-.029-.489.145-.667.647-.662,1.948.022,3.9.009,5.846.009" transform="translate(-1965.332 -884.754)" fill="#6d6d6d"/>
      <path id="Path_8263" data-name="Path 8263" d="M1956.674,1025.326q0-5.149,0-10.3c0-.98.352-1.357,1.331-1.359q6.882-.012,13.765,0c.912,0,1.317.432,1.318,1.349q0,10.375,0,20.751c0,.874-.375,1.283-1.252,1.285q-6.986.016-13.972,0c-.828,0-1.187-.39-1.188-1.224q-.006-5.252,0-10.5m8.275,5.128c.287-.032.546-.047.8-.093a7.07,7.07,0,0,0,4.625-2.869,6.5,6.5,0,0,0,.918-6.5c-.364-.95-.558-1.011-1.572-.878a7.176,7.176,0,0,0-4.38,2.233c-.417.439-.61.34-.964-.024a7.089,7.089,0,0,0-4.7-2.231c-.811-.056-.99.069-1.253.845a6.7,6.7,0,0,0,.481,5.878,7.192,7.192,0,0,0,6.049,3.636" transform="translate(-1950.166 -993.556)" fill="#3b9e49"/>
      <path id="Path_8264" data-name="Path 8264" d="M1987.812,1094.9a3.678,3.678,0,0,1-.1.984c-.023.1-.007.225-.132.255-.152.036-.207-.093-.263-.2-.324-.607-.644-1.217-.967-1.824-.332-.623-.661-1.248-1-1.867-.191-.35-.484-.521-.856-.3a.631.631,0,0,0-.274.923q.8,1.534,1.6,3.073c.066.129.223.282.093.419s-.3.006-.427-.057a5.679,5.679,0,0,1-3.185-6.734c.1-.38.326-.427.658-.371a5.754,5.754,0,0,1,4.853,5.7" transform="translate(-1972.954 -1061.255)" fill="#6d6d6d"/>
      <path id="Path_8265" data-name="Path 8265" d="M2048.883,1090.976a5.682,5.682,0,0,1-3.588,5.355c-.169.065-.357.215-.528.054-.144-.135-.044-.324,0-.489a6.469,6.469,0,0,1,2.332-3.907.627.627,0,0,0,.141-.956.665.665,0,0,0-.978-.073,6.05,6.05,0,0,0-1.3,1.319c-.317.437-.334.412-.6-.043a.8.8,0,0,1,.155-1.091,6.061,6.061,0,0,1,3.418-1.988c.6-.113.685-.05.821.535a4.864,4.864,0,0,1,.131,1.284" transform="translate(-2028.641 -1061.193)" fill="#6d6d6d"/>
    </g>
  </g>
</svg>
